<svg width="16" height="16" viewBox="0 0 36 36" fill="none" xmlns="http://www.w3.org/2000/svg">
    <g clip-path="url(#clip0_1445_428)">
    <path d="M17.9994 35.6394C8.27218 35.6394 0.359375 27.7266 0.359375 17.9994C0.359375 8.27218 8.27218 0.359375 17.9994 0.359375C27.7266 0.359375 35.6394 8.27218 35.6394 17.9994C35.6394 27.7266 27.7266 35.6394 17.9994 35.6394ZM17.9994 2.00098C9.17578 2.00098 2.00098 9.17938 2.00098 17.9994C2.00098 26.8194 9.17938 33.9978 17.9994 33.9978C26.823 33.9978 33.9978 26.8194 33.9978 17.9994C33.9978 9.17938 26.823 2.00098 17.9994 2.00098ZM19.9866 10.9254C18.7842 10.9254 17.8086 9.94978 17.8086 8.74738C17.8086 7.54498 18.7842 6.56938 19.9866 6.56938C21.189 6.56938 22.1646 7.54498 22.1646 8.74738C22.1646 9.94978 21.189 10.9254 19.9866 10.9254ZM14.4966 14.7522C14.4966 14.5758 14.4966 14.3958 14.4966 14.2194C16.2246 13.5318 18.8886 13.7838 20.6706 13.1538C20.7426 13.1538 20.811 13.1538 20.883 13.1538C20.0226 17.5134 18.2082 21.477 17.7942 25.9302C17.8914 26.0058 17.8806 25.9878 18.0066 26.0346C19.3458 26.4846 20.1162 23.3706 20.9874 23.5866C21.8622 23.8026 20.4402 25.3506 20.2422 25.6098C19.461 26.6322 17.967 28.3674 16.1958 28.3782C14.9466 28.3854 13.6506 27.597 13.8522 25.5054C14.0574 23.4102 15.231 20.4942 15.8754 18.1578C16.3974 16.275 17.067 14.7018 14.4966 14.7522Z" fill="#282828"/>
    </g>
    <defs>
    <clipPath id="clip0_1445_428">
    <rect width="36" height="36" fill="white"/>
    </clipPath>
    </defs>
</svg>
