<svg width="120" height="50" viewBox="0 0 220 17" fill="none" xmlns="http://www.w3.org/2000/svg">
    <path d="M5.30938 8.81C5.80271 8.81 6.23271 8.75 6.59938 8.63C6.96604 8.50333 7.26938 8.32667 7.50938 8.1C7.75604 7.86667 7.93938 7.58667 8.05937 7.26C8.17937 6.92667 8.23938 6.55667 8.23938 6.15C8.23938 5.76333 8.17937 5.41333 8.05937 5.1C7.93938 4.78667 7.75938 4.52 7.51938 4.3C7.27938 4.08 6.97604 3.91333 6.60938 3.8C6.24271 3.68 5.80938 3.62 5.30938 3.62H3.29938V8.81H5.30938ZM5.30938 1.54C6.27604 1.54 7.11271 1.65333 7.81938 1.88C8.52604 2.10667 9.10938 2.42333 9.56938 2.83C10.0294 3.23667 10.3694 3.72333 10.5894 4.29C10.816 4.85667 10.9294 5.47667 10.9294 6.15C10.9294 6.85 10.8127 7.49333 10.5794 8.08C10.346 8.66 9.99604 9.16 9.52938 9.58C9.06271 10 8.47604 10.3267 7.76938 10.56C7.06938 10.7933 6.24938 10.91 5.30938 10.91H3.29938V16H0.609375V1.54H5.30938Z" fill="white"/>
    <path d="M16.6734 5.58C17.4334 5.58 18.1234 5.70333 18.7434 5.95C19.3701 6.19667 19.9034 6.54667 20.3434 7C20.7901 7.45333 21.1334 8.00667 21.3734 8.66C21.6134 9.31333 21.7334 10.0433 21.7334 10.85C21.7334 11.6633 21.6134 12.3967 21.3734 13.05C21.1334 13.7033 20.7901 14.26 20.3434 14.72C19.9034 15.18 19.3701 15.5333 18.7434 15.78C18.1234 16.0267 17.4334 16.15 16.6734 16.15C15.9068 16.15 15.2101 16.0267 14.5834 15.78C13.9568 15.5333 13.4201 15.18 12.9734 14.72C12.5334 14.26 12.1901 13.7033 11.9434 13.05C11.7034 12.3967 11.5834 11.6633 11.5834 10.85C11.5834 10.0433 11.7034 9.31333 11.9434 8.66C12.1901 8.00667 12.5334 7.45333 12.9734 7C13.4201 6.54667 13.9568 6.19667 14.5834 5.95C15.2101 5.70333 15.9068 5.58 16.6734 5.58ZM16.6734 14.25C17.5268 14.25 18.1568 13.9633 18.5634 13.39C18.9768 12.8167 19.1834 11.9767 19.1834 10.87C19.1834 9.76333 18.9768 8.92 18.5634 8.34C18.1568 7.76 17.5268 7.47 16.6734 7.47C15.8068 7.47 15.1634 7.76333 14.7434 8.35C14.3301 8.93 14.1234 9.77 14.1234 10.87C14.1234 11.97 14.3301 12.81 14.7434 13.39C15.1634 13.9633 15.8068 14.25 16.6734 14.25Z" fill="white"/>
    <path d="M38.092 5.74L34.832 16H32.852C32.6254 16 32.4687 15.8533 32.382 15.56L30.542 9.63C30.482 9.43 30.4254 9.23333 30.372 9.04C30.3254 8.84 30.2854 8.64 30.252 8.44C30.212 8.64 30.1654 8.84333 30.112 9.05C30.0654 9.25 30.012 9.45 29.952 9.65L28.082 15.56C28.002 15.8533 27.8254 16 27.552 16H25.652L22.402 5.74H24.372C24.552 5.74 24.7054 5.78333 24.832 5.87C24.9587 5.95667 25.042 6.06667 25.082 6.2L26.552 11.68C26.6254 11.98 26.6887 12.2733 26.742 12.56C26.802 12.8467 26.852 13.1333 26.892 13.42C26.9654 13.1333 27.042 12.8467 27.122 12.56C27.2087 12.2733 27.2987 11.98 27.392 11.68L29.092 6.18C29.132 6.04667 29.2087 5.93667 29.322 5.85C29.442 5.76333 29.5854 5.72 29.752 5.72H30.842C31.0154 5.72 31.162 5.76333 31.282 5.85C31.4087 5.93667 31.492 6.04667 31.532 6.18L33.182 11.68C33.2687 11.98 33.3487 12.2767 33.422 12.57C33.502 12.8567 33.5787 13.1433 33.652 13.43C33.7387 12.8633 33.862 12.28 34.022 11.68L35.532 6.2C35.5787 6.06667 35.662 5.95667 35.782 5.87C35.902 5.78333 36.0454 5.74 36.212 5.74H38.092Z" fill="white"/>
    <path d="M45.9309 9.69C45.9309 9.37 45.8843 9.07 45.7909 8.79C45.7043 8.50333 45.5709 8.25333 45.3909 8.04C45.2109 7.82667 44.9809 7.66 44.7009 7.54C44.4276 7.41333 44.1076 7.35 43.7409 7.35C43.0276 7.35 42.4643 7.55333 42.0509 7.96C41.6443 8.36667 41.3843 8.94333 41.2709 9.69H45.9309ZM41.2209 11.18C41.2609 11.7067 41.3543 12.1633 41.5009 12.55C41.6476 12.93 41.8409 13.2467 42.0809 13.5C42.3209 13.7467 42.6043 13.9333 42.9309 14.06C43.2643 14.18 43.6309 14.24 44.0309 14.24C44.4309 14.24 44.7743 14.1933 45.0609 14.1C45.3543 14.0067 45.6076 13.9033 45.8209 13.79C46.0409 13.6767 46.2309 13.5733 46.3909 13.48C46.5576 13.3867 46.7176 13.34 46.8709 13.34C47.0776 13.34 47.2309 13.4167 47.3309 13.57L48.0409 14.47C47.7676 14.79 47.4609 15.06 47.1209 15.28C46.7809 15.4933 46.4243 15.6667 46.0509 15.8C45.6843 15.9267 45.3076 16.0167 44.9209 16.07C44.5409 16.1233 44.1709 16.15 43.8109 16.15C43.0976 16.15 42.4343 16.0333 41.8209 15.8C41.2076 15.56 40.6743 15.21 40.2209 14.75C39.7676 14.2833 39.4109 13.71 39.1509 13.03C38.8909 12.3433 38.7609 11.55 38.7609 10.65C38.7609 9.95 38.8743 9.29333 39.1009 8.68C39.3276 8.06 39.6509 7.52333 40.0709 7.07C40.4976 6.61 41.0143 6.24667 41.6209 5.98C42.2343 5.71333 42.9243 5.58 43.6909 5.58C44.3376 5.58 44.9343 5.68333 45.4809 5.89C46.0276 6.09667 46.4976 6.4 46.8909 6.8C47.2843 7.19333 47.5909 7.68 47.8109 8.26C48.0376 8.83333 48.1509 9.49 48.1509 10.23C48.1509 10.6033 48.1109 10.8567 48.0309 10.99C47.9509 11.1167 47.7976 11.18 47.5709 11.18H41.2209Z" fill="white"/>
    <path d="M52.3345 7.52C52.6545 6.90667 53.0345 6.42667 53.4745 6.08C53.9145 5.72667 54.4345 5.55 55.0345 5.55C55.5079 5.55 55.8879 5.65333 56.1745 5.86L56.0145 7.71C55.9812 7.83 55.9312 7.91667 55.8645 7.97C55.8045 8.01667 55.7212 8.04 55.6145 8.04C55.5145 8.04 55.3645 8.02333 55.1645 7.99C54.9712 7.95667 54.7812 7.94 54.5945 7.94C54.3212 7.94 54.0779 7.98 53.8645 8.06C53.6512 8.14 53.4579 8.25667 53.2845 8.41C53.1179 8.55667 52.9679 8.73667 52.8345 8.95C52.7079 9.16333 52.5879 9.40667 52.4745 9.68V16H50.0045V5.74H51.4545C51.7079 5.74 51.8845 5.78667 51.9845 5.88C52.0845 5.96667 52.1512 6.12667 52.1845 6.36L52.3345 7.52Z" fill="white"/>
    <path d="M63.7825 9.69C63.7825 9.37 63.7358 9.07 63.6425 8.79C63.5558 8.50333 63.4225 8.25333 63.2425 8.04C63.0625 7.82667 62.8325 7.66 62.5525 7.54C62.2792 7.41333 61.9592 7.35 61.5925 7.35C60.8792 7.35 60.3158 7.55333 59.9025 7.96C59.4958 8.36667 59.2358 8.94333 59.1225 9.69H63.7825ZM59.0725 11.18C59.1125 11.7067 59.2058 12.1633 59.3525 12.55C59.4992 12.93 59.6925 13.2467 59.9325 13.5C60.1725 13.7467 60.4558 13.9333 60.7825 14.06C61.1158 14.18 61.4825 14.24 61.8825 14.24C62.2825 14.24 62.6258 14.1933 62.9125 14.1C63.2058 14.0067 63.4592 13.9033 63.6725 13.79C63.8925 13.6767 64.0825 13.5733 64.2425 13.48C64.4092 13.3867 64.5692 13.34 64.7225 13.34C64.9292 13.34 65.0825 13.4167 65.1825 13.57L65.8925 14.47C65.6192 14.79 65.3125 15.06 64.9725 15.28C64.6325 15.4933 64.2758 15.6667 63.9025 15.8C63.5358 15.9267 63.1592 16.0167 62.7725 16.07C62.3925 16.1233 62.0225 16.15 61.6625 16.15C60.9492 16.15 60.2858 16.0333 59.6725 15.8C59.0592 15.56 58.5258 15.21 58.0725 14.75C57.6192 14.2833 57.2625 13.71 57.0025 13.03C56.7425 12.3433 56.6125 11.55 56.6125 10.65C56.6125 9.95 56.7258 9.29333 56.9525 8.68C57.1792 8.06 57.5025 7.52333 57.9225 7.07C58.3492 6.61 58.8658 6.24667 59.4725 5.98C60.0858 5.71333 60.7758 5.58 61.5425 5.58C62.1892 5.58 62.7858 5.68333 63.3325 5.89C63.8792 6.09667 64.3492 6.4 64.7425 6.8C65.1358 7.19333 65.4425 7.68 65.6625 8.26C65.8892 8.83333 66.0025 9.49 66.0025 10.23C66.0025 10.6033 65.9625 10.8567 65.8825 10.99C65.8025 11.1167 65.6492 11.18 65.4225 11.18H59.0725Z" fill="white"/>
    <path d="M74.2961 8.36C74.0161 8.02 73.7094 7.78 73.3761 7.64C73.0494 7.5 72.6961 7.43 72.3161 7.43C71.9428 7.43 71.6061 7.5 71.3061 7.64C71.0061 7.78 70.7494 7.99333 70.5361 8.28C70.3228 8.56 70.1594 8.92 70.0461 9.36C69.9328 9.79333 69.8761 10.3067 69.8761 10.9C69.8761 11.5 69.9228 12.01 70.0161 12.43C70.1161 12.8433 70.2561 13.1833 70.4361 13.45C70.6161 13.71 70.8361 13.9 71.0961 14.02C71.3561 14.1333 71.6461 14.19 71.9661 14.19C72.4794 14.19 72.9161 14.0833 73.2761 13.87C73.6361 13.6567 73.9761 13.3533 74.2961 12.96V8.36ZM76.7661 1.14V16H75.2561C74.9294 16 74.7228 15.85 74.6361 15.55L74.4261 14.56C74.0128 15.0333 73.5361 15.4167 72.9961 15.71C72.4628 16.0033 71.8394 16.15 71.1261 16.15C70.5661 16.15 70.0528 16.0333 69.5861 15.8C69.1194 15.5667 68.7161 15.23 68.3761 14.79C68.0428 14.3433 67.7828 13.7933 67.5961 13.14C67.4161 12.4867 67.3261 11.74 67.3261 10.9C67.3261 10.14 67.4294 9.43333 67.6361 8.78C67.8428 8.12667 68.1394 7.56 68.5261 7.08C68.9128 6.6 69.3761 6.22667 69.9161 5.96C70.4561 5.68667 71.0628 5.55 71.7361 5.55C72.3094 5.55 72.7994 5.64 73.2061 5.82C73.6128 6 73.9761 6.24333 74.2961 6.55V1.14H76.7661Z" fill="white"/>
    <path d="M86.537 13.34C86.817 13.68 87.1204 13.92 87.447 14.06C87.7804 14.2 88.1304 14.27 88.497 14.27C88.877 14.27 89.217 14.2033 89.517 14.07C89.8237 13.93 90.0837 13.7167 90.297 13.43C90.5104 13.1367 90.6737 12.7667 90.787 12.32C90.9004 11.8667 90.957 11.3267 90.957 10.7C90.957 9.57333 90.7704 8.76 90.397 8.26C90.0237 7.75333 89.487 7.5 88.787 7.5C88.3137 7.5 87.9004 7.61 87.547 7.83C87.1937 8.04333 86.857 8.34667 86.537 8.74V13.34ZM86.537 7C86.9504 6.56667 87.407 6.22333 87.907 5.97C88.4137 5.71 88.9904 5.58 89.637 5.58C90.2304 5.58 90.7637 5.69667 91.237 5.93C91.717 6.16333 92.1237 6.5 92.457 6.94C92.797 7.37333 93.057 7.9 93.237 8.52C93.417 9.14 93.507 9.83667 93.507 10.61C93.507 11.4433 93.4037 12.2 93.197 12.88C92.9904 13.56 92.6937 14.1433 92.307 14.63C91.927 15.11 91.467 15.4833 90.927 15.75C90.387 16.0167 89.787 16.15 89.127 16.15C88.807 16.15 88.517 16.1167 88.257 16.05C87.997 15.99 87.757 15.9033 87.537 15.79C87.317 15.6767 87.1137 15.54 86.927 15.38C86.747 15.2133 86.5737 15.03 86.407 14.83L86.297 15.52C86.257 15.6933 86.187 15.8167 86.087 15.89C85.9937 15.9633 85.8637 16 85.697 16H84.067V1.14H86.537V7Z" fill="white"/>
    <path d="M104.442 5.74L98.8517 18.82C98.7784 18.9933 98.6817 19.1233 98.5617 19.21C98.4484 19.3033 98.2717 19.35 98.0317 19.35H96.1917L98.1117 15.23L93.9617 5.74H96.1317C96.3251 5.74 96.4751 5.78667 96.5817 5.88C96.6951 5.97333 96.7784 6.08 96.8317 6.2L99.0117 11.52C99.0851 11.7 99.1451 11.88 99.1917 12.06C99.2451 12.24 99.2951 12.4233 99.3417 12.61C99.4017 12.4233 99.4617 12.24 99.5217 12.06C99.5817 11.8733 99.6484 11.69 99.7217 11.51L101.782 6.2C101.835 6.06667 101.922 5.95667 102.042 5.87C102.168 5.78333 102.308 5.74 102.462 5.74H104.442Z" fill="white"/>
    <path fill-rule="evenodd" clip-rule="evenodd" d="M187.997 4.1C186.397 4.1 185.197 4.7 184.597 5.7L184.297 6.3V4.4H181.697V16H184.497V9.1C184.497 7.5 185.397 6.5 186.997 6.5C188.497 6.5 189.297 7.4 189.297 9V16H192.097V8.5C191.997 5.8 190.497 4.1 187.997 4.1ZM174.497 4.1C171.197 4.1 169.197 6.2 169.197 9.5V11.1C169.197 14.3 171.297 16.2 174.597 16.2C176.797 16.2 178.397 15.4 179.297 13.7L177.597 12.7C176.897 13.7 175.697 14.3 174.597 14.3C172.897 14.3 171.897 13.3 171.897 11.5V11H179.697V9.1C179.597 6.1 177.597 4.1 174.497 4.1ZM177.097 9.3H171.897V9C171.897 7.1 172.797 6 174.497 6C176.097 6 177.097 7 177.097 8.8V9.3ZM219.697 2.5V0.299999H210.097V2.5H213.497V13.8H210.097V16H219.697V13.8H216.297V2.5H219.697ZM146.597 0C142.297 0 139.597 2.7 139.597 7V9.3C139.597 13.6 142.297 16.3 146.597 16.3C150.897 16.3 153.597 13.6 153.597 9.3V7C153.597 2.7 150.897 0 146.597 0ZM150.697 9.5C150.697 12.4 149.197 14 146.597 14C143.997 14 142.497 12.4 142.497 9.5V6.8C142.497 3.9 143.997 2.3 146.597 2.3C149.197 2.3 150.697 3.9 150.697 6.8V9.5ZM162.397 4.2C160.897 4.2 159.697 4.8 158.997 5.8L158.697 6.2V4.4H156.097V20H158.897V14.4L159.197 14.8C159.797 15.7 161.097 16.3 162.497 16.3C164.897 16.3 167.297 14.7 167.297 11.2V9.2C167.197 6.7 165.697 4.1 162.397 4.2ZM164.397 11.1C164.397 13 163.297 14.1 161.597 14.1C159.997 14.1 158.797 12.9 158.797 11.1V9.4C158.797 7.6 159.897 6.4 161.597 6.4C163.297 6.4 164.397 7.6 164.397 9.4V11.1ZM199.697 0.299999L194.097 16H196.897L197.997 12.6H204.497L205.597 15.9H208.397L202.797 0.200001L199.697 0.299999ZM198.697 10.4L201.197 2.5L203.697 10.4H198.697ZM132.397 8.2C132.897 6.8 132.697 5.3 131.997 4.1C130.897 2.2 128.697 1.2 126.597 1.7C125.397 0.400001 123.597 -0.200002 121.797 0.0999985C119.997 0.499998 118.597 1.8 117.997 3.5C116.597 3.8 115.397 4.7 114.697 5.9C113.597 7.8 113.797 10.2 115.297 11.8C114.797 13.2 114.997 14.7 115.697 15.9C116.797 17.8 118.997 18.8 121.097 18.3C122.097 19.4 123.397 20 124.897 20C127.097 20 128.997 18.6 129.697 16.5C131.097 16.2 132.297 15.3 132.997 14.1C134.097 12.2 133.897 9.8 132.397 8.2ZM124.897 18.7C123.997 18.7 123.197 18.4 122.497 17.8L122.597 17.7L126.597 15.4C126.797 15.3 126.897 15.1 126.897 14.8V9.2L128.597 10.2V14.9C128.597 17 126.997 18.7 124.897 18.7ZM116.797 15.2C116.397 14.4 116.197 13.6 116.397 12.7L116.497 12.8L120.497 15.1C120.697 15.2 120.897 15.2 121.197 15.1L126.097 12.3V14.2C126.097 14.2 126.097 14.2 126.097 14.3L122.097 16.6C120.197 17.6 117.897 17 116.797 15.2ZM115.797 6.6C116.197 5.8 116.897 5.3 117.797 5V9.7C117.797 9.9 117.897 10.1 118.097 10.3L122.897 13.1L121.197 14.1C121.197 14.1 121.197 14.1 121.097 14.1L117.097 11.8C115.397 10.6 114.797 8.3 115.797 6.6ZM129.597 9.8L124.797 7L126.497 6C126.497 6 126.497 6 126.597 6L130.597 8.3C131.897 9 132.597 10.4 132.497 11.9C132.397 13.3 131.397 14.6 130.097 15.1V10.4C129.997 10.1 129.797 9.9 129.597 9.8ZM131.297 7.3L131.197 7.2L127.197 4.9C126.997 4.8 126.697 4.8 126.497 4.9L121.697 7.7V5.8C121.697 5.8 121.697 5.8 121.697 5.7L125.697 3.4C126.997 2.7 128.497 2.7 129.697 3.6C130.897 4.4 131.497 5.8 131.297 7.3ZM120.797 10.7L119.097 9.7V5C119.097 3.5 119.897 2.2 121.297 1.6C122.597 0.999998 124.197 1.2 125.297 2.1L125.197 2.2L121.197 4.5C120.997 4.6 120.897 4.8 120.897 5.1L120.797 10.7ZM121.697 8.7L123.897 7.5L126.097 8.7V11.2L123.897 12.4L121.697 11.2V8.7Z" fill="white"/>
</svg>
