<svg width="60" height="14" viewBox="0 0 77 14" fill="none" xmlns="http://www.w3.org/2000/svg">
    <path fill-rule="evenodd" clip-rule="evenodd" d="M53.9069 2.87C52.7413 2.87 51.8671 3.29 51.43 3.99L51.2114 4.41V3.08H49.3174V11.2H51.3571V6.37C51.3571 5.25 52.0128 4.55 53.1784 4.55C54.2711 4.55 54.8539 5.18 54.8539 6.3V11.2H56.8937V5.95C56.8208 4.06 55.7281 2.87 53.9069 2.87ZM44.0722 2.87C41.6682 2.87 40.2113 4.34 40.2113 6.65V7.77C40.2113 10.01 41.7411 11.34 44.1451 11.34C45.7478 11.34 46.9134 10.78 47.569 9.59L46.3306 8.89C45.8206 9.59 44.9464 10.01 44.1451 10.01C42.9067 10.01 42.1782 9.31 42.1782 8.05V7.7H47.8604V6.37C47.7875 4.27 46.3306 2.87 44.0722 2.87ZM45.9663 6.51H42.1782V6.3C42.1782 4.97 42.8338 4.2 44.0722 4.2C45.2378 4.2 45.9663 4.9 45.9663 6.16V6.51ZM77 1.75V0.209999H70.0065V1.75H72.4834V9.66H70.0065V11.2H77V9.66H74.5231V1.75H77ZM23.7474 0C20.6149 0 18.6479 1.89 18.6479 4.9V6.51C18.6479 9.52 20.6149 11.41 23.7474 11.41C26.8799 11.41 28.8468 9.52 28.8468 6.51V4.9C28.8468 1.89 26.8799 0 23.7474 0ZM26.7342 6.65C26.7342 8.68 25.6414 9.8 23.7474 9.8C21.8533 9.8 20.7606 8.68 20.7606 6.65V4.76C20.7606 2.73 21.8533 1.61 23.7474 1.61C25.6414 1.61 26.7342 2.73 26.7342 4.76V6.65ZM35.2575 2.94C34.1648 2.94 33.2906 3.36 32.7806 4.06L32.5621 4.34V3.08H30.668V14H32.7078V10.08L32.9264 10.36C33.3635 10.99 34.3105 11.41 35.3304 11.41C37.0787 11.41 38.8271 10.29 38.8271 7.84V6.44C38.7543 4.69 37.6615 2.87 35.2575 2.94ZM36.7145 7.77C36.7145 9.1 35.9132 9.87 34.6747 9.87C33.5091 9.87 32.635 9.03 32.635 7.77V6.58C32.635 5.32 33.4363 4.48 34.6747 4.48C35.9132 4.48 36.7145 5.32 36.7145 6.58V7.77ZM62.4302 0.209999L58.3506 11.2H60.3904L61.1918 8.82H65.9269L66.7283 11.13H68.7681L64.6885 0.140001L62.4302 0.209999ZM61.7017 7.28L63.5229 1.75L65.3442 7.28H61.7017ZM13.4028 5.74C13.7671 4.76 13.6214 3.71 13.1114 2.87C12.3101 1.54 10.7074 0.84 9.17757 1.19C8.30339 0.280001 6.9921 -0.140001 5.68082 0.0699989C4.36954 0.349999 3.34966 1.26 2.91256 2.45C1.89268 2.66 1.01849 3.29 0.508542 4.13C-0.292797 5.46 -0.1471 7.14 0.945635 8.26C0.58139 9.24 0.72709 10.29 1.23703 11.13C2.03837 12.46 3.64105 13.16 5.17088 12.81C5.89937 13.58 6.84641 14 7.93914 14C9.54182 14 10.926 13.02 11.4359 11.55C12.4558 11.34 13.33 10.71 13.8399 9.87C14.6412 8.54 14.4956 6.86 13.4028 5.74ZM7.93914 13.09C7.2835 13.09 6.70071 12.88 6.19077 12.46L6.26361 12.39L9.17757 10.78C9.32327 10.71 9.39612 10.57 9.39612 10.36V6.44L10.6346 7.14V10.43C10.6346 11.9 9.46897 13.09 7.93914 13.09ZM2.03837 10.64C1.74697 10.08 1.60128 9.52 1.74698 8.89L1.81983 8.96L4.73379 10.57C4.87948 10.64 5.02518 10.64 5.24373 10.57L8.81333 8.61V9.94C8.81333 9.94 8.81333 9.94 8.81333 10.01L5.89937 11.62C4.51524 12.32 2.83971 11.9 2.03837 10.64ZM1.30988 4.62C1.60128 4.06 2.11122 3.71 2.76686 3.5V6.79C2.76686 6.93 2.83971 7.07 2.98541 7.21L6.48216 9.17L5.24373 9.87C5.24373 9.87 5.24373 9.87 5.17088 9.87L2.25692 8.26C1.01849 7.42 0.58139 5.81 1.30988 4.62ZM11.363 6.86L7.86629 4.9L9.10473 4.2C9.10473 4.2 9.10473 4.2 9.17757 4.2L12.0915 5.81C13.0386 6.3 13.5485 7.28 13.4757 8.33C13.4028 9.31 12.6743 10.22 11.7273 10.57V7.28C11.6544 7.07 11.5087 6.93 11.363 6.86ZM12.6015 5.11L12.5286 5.04L9.61467 3.43C9.46897 3.36 9.25042 3.36 9.10473 3.43L5.60797 5.39V4.06C5.60797 4.06 5.60797 4.06 5.60797 3.99L8.52193 2.38C9.46897 1.89 10.5617 1.89 11.4359 2.52C12.3101 3.08 12.7472 4.06 12.6015 5.11ZM4.95233 7.49L3.7139 6.79V3.5C3.7139 2.45 4.29669 1.54 5.31658 1.12C6.26361 0.699999 7.4292 0.84 8.23054 1.47L8.15769 1.54L5.24373 3.15C5.09803 3.22 5.02518 3.36 5.02518 3.57L4.95233 7.49ZM5.60797 6.09L7.21065 5.25L8.81333 6.09V7.84L7.21065 8.68L5.60797 7.84V6.09Z" fill="white"/>
</svg>
